<?xml version="1.0" encoding="utf-8"?>
<!-- Generator: Adobe Illustrator 26.0.2, SVG Export Plug-In . SVG Version: 6.00 Build 0)  -->
<svg version="1.1" id="Layer_32" xmlns="http://www.w3.org/2000/svg" xmlns:xlink="http://www.w3.org/1999/xlink" x="0px" y="0px"
	 viewBox="0 0 64 64" style="enable-background:new 0 0 64 64;" xml:space="preserve">
<g>
	<path style="fill:#EC77E5;" d="M32,62L32,62c-8.837,0-16-7.163-16-16V18c0-8.837,7.163-16,16-16h0c8.837,0,16,7.163,16,16v28
		C48,54.837,40.837,62,32,62z"/>
	<path style="fill:#C6EBFD;" d="M33.5,2.076C25.368,2.833,19,9.67,19,18v28c0,8.33,6.368,15.167,14.5,15.924
		C41.632,61.167,48,54.33,48,46V18C48,9.67,41.632,2.833,33.5,2.076z"/>
	<path style="fill:#F29AE4;" d="M33.5,2.076C25.368,2.833,19,9.67,19,18v28c0,8.33,6.368,15.167,14.5,15.924
		C41.632,61.167,48,54.33,48,46V18C48,9.67,41.632,2.833,33.5,2.076z"/>
	<g>
		<path style="fill:#C6EBFD;" d="M16.074,47.461l0.011-0.003c-0.011-0.119-0.019-0.238-0.029-0.357
			C16.064,47.221,16.063,47.342,16.074,47.461z"/>
	</g>
	<circle style="fill:#EDCAB2;" cx="32" cy="22" r="11"/>
	<ellipse style="fill:#F6DBC5;" cx="33.5" cy="22" rx="9.5" ry="10.886"/>
	<g>
		<path style="fill:#EDCAB2;" d="M32,30c-1.654,0-3-1.346-3-3h2c0,0.551,0.449,1,1,1s1-0.449,1-1h2C35,28.654,33.654,30,32,30z"/>
	</g>
	<g>
		<rect x="26" y="20" style="fill:#EDCAB2;" width="2" height="3"/>
	</g>
	<g>
		<rect x="36" y="20" style="fill:#EDCAB2;" width="2" height="3"/>
	</g>
	<circle style="fill:#EC77E5;" cx="32" cy="12" r="2"/>
	<path style="fill:#EC77E5;" d="M30,12c0-0.404,0.122-0.778,0.327-1.092l-3.467-2.3c-1.63-1.076-3.765-0.692-4.966,0.893
		c-1.107,1.461-1.107,3.536,0,4.997c1.201,1.585,3.336,1.969,4.966,0.893l3.455-2.324C30.118,12.758,30,12.394,30,12z"/>
	<path style="fill:#EC77E5;" d="M42.107,9.502c-1.201-1.585-3.336-1.969-4.966-0.893l-3.433,2.363C33.889,11.273,34,11.622,34,12
		c0,0.387-0.115,0.745-0.305,1.052l3.446,2.34c1.63,1.076,3.765,0.692,4.966-0.893C43.213,13.038,43.213,10.962,42.107,9.502z"/>
	<path style="fill:#EC77E5;" d="M57,36l-3.953-3.162C52.385,32.308,52,31.507,52,30.659v0c0-0.433,0.101-0.861,0.295-1.248
		l0.035-0.069C52.74,28.519,53.581,28,54.5,28l0,0c0.919,0,1.76,0.519,2.171,1.342L57,30l0.329-0.658
		C57.74,28.519,58.581,28,59.5,28l0,0c0.919,0,1.76,0.519,2.171,1.342l0.035,0.069C61.899,29.798,62,30.226,62,30.659v0
		c0,0.848-0.385,1.65-1.047,2.179L57,36z"/>
	<path style="fill:#F29AE4;" d="M61.671,29.342C61.26,28.519,60.419,28,59.5,28s-1.76,0.519-2.171,1.342L57,30l-0.329-0.658
		c-0.252-0.505-0.676-0.875-1.171-1.101c-0.495,0.226-0.919,0.597-1.171,1.101l-0.035,0.069C54.101,29.798,54,30.226,54,30.659
		c0,0.848,0.385,1.65,1.047,2.179L58,35.2l2.953-2.362C61.615,32.308,62,31.506,62,30.659c0-0.433-0.101-0.86-0.295-1.248
		L61.671,29.342z"/>
	<path style="fill:#EC77E5;" d="M7,36l-3.953-3.162C2.385,32.308,2,31.507,2,30.659v0c0-0.433,0.101-0.861,0.295-1.248l0.035-0.069
		C2.74,28.519,3.581,28,4.5,28h0c0.919,0,1.76,0.519,2.171,1.342L7,30l0.329-0.658C7.74,28.519,8.581,28,9.5,28h0
		c0.919,0,1.76,0.519,2.171,1.342l0.035,0.069C11.899,29.798,12,30.226,12,30.659v0c0,0.848-0.385,1.65-1.047,2.179L7,36z"/>
	<path style="fill:#F29AE4;" d="M11.671,29.342C11.26,28.519,10.419,28,9.5,28s-1.76,0.519-2.171,1.342L7,30l-0.329-0.658
		C6.419,28.837,5.995,28.467,5.5,28.24c-0.495,0.226-0.919,0.597-1.171,1.101l-0.035,0.069C4.101,29.798,4,30.226,4,30.659
		c0,0.848,0.385,1.65,1.047,2.179L8,35.2l2.953-2.362C11.615,32.308,12,31.506,12,30.659c0-0.433-0.101-0.86-0.295-1.248
		L11.671,29.342z"/>
	<path style="fill:#F29AE4;" d="M25.222,53.673c8.782-1.527,17.054-6.47,22.778-13.258v-9.272
		c-6.314,6.337-14.87,10.447-23.816,11.193L16,43.174V46c0,3.299,1,6.364,2.711,8.91L25.222,53.673z"/>
	<path style="fill:#F5C0F0;" d="M36.604,39.049l-4.791-0.639C26.106,37.65,20.346,35.01,16,31.23v11.943l8.184-0.837
		C28.484,41.979,32.69,40.836,36.604,39.049z"/>
	<path style="fill:#F5C0F0;" d="M19,42.867V46c0,3.084,0.876,5.96,2.388,8.402l3.834-0.729c8.782-1.527,17.054-6.47,22.778-13.258
		v-9.272c-6.314,6.337-14.87,10.447-23.816,11.193L19,42.867z"/>
	<path style="fill:#F9D9F6;" d="M19,33.494v9.373l5.184-0.53c4.3-0.359,8.506-1.501,12.42-3.288l-4.791-0.639
		C27.335,37.814,22.835,36.048,19,33.494z"/>
</g>
</svg>
